<?xml version="1.0" encoding="UTF-8"?>
<svg width="27px" height="24px" viewBox="0 0 27 24" version="1.1" xmlns="http://www.w3.org/2000/svg" xmlns:xlink="http://www.w3.org/1999/xlink">
    <!-- Generator: Sketch 64 (93537) - https://sketch.com -->
    <title>icon/github</title>
    <desc>Created with Sketch.</desc>
    <g id="Article-Overview" stroke="none" stroke-width="1" fill="none" fill-rule="evenodd">
        <g id="Desktop---Article-List-View" transform="translate(-1068.000000, -756.000000)" fill="#343838">
            <g id="About-Me-Box" transform="translate(410.000000, 747.000000)">
                <g id="External-Sites" transform="translate(658.000000, 9.000000)">
                    <g id="icon/github">
                        <g id="github">
                            <path d="M8.81442125,18.8419355 C8.81442125,18.9387097 8.69222011,19.016129 8.53814042,19.016129 C8.36280835,19.0306452 8.24060721,18.9532258 8.24060721,18.8419355 C8.24060721,18.7451613 8.36280835,18.6677419 8.51688805,18.6677419 C8.67628083,18.6532258 8.81442125,18.7306452 8.81442125,18.8419355 Z M7.16204934,18.6241935 C7.12485769,18.7209677 7.23111954,18.8322581 7.39051233,18.8612903 C7.52865275,18.9096774 7.68804554,18.8612903 7.7199241,18.7645161 C7.75180266,18.6677419 7.65085389,18.5564516 7.4914611,18.5129032 C7.35332068,18.4790323 7.19924099,18.5274194 7.16204934,18.6241935 Z M9.51043643,18.5419355 C9.35635674,18.5758065 9.25009488,18.6677419 9.26603416,18.7790323 C9.28197343,18.8758065 9.42011385,18.9387097 9.57950664,18.9048387 C9.73358634,18.8709677 9.8398482,18.7790323 9.82390892,18.6822581 C9.80796964,18.5903226 9.66451613,18.5274194 9.51043643,18.5419355 Z M13.0064516,0 C5.63719165,0 0,5.09516129 0,11.8064516 C0,17.1725806 3.7085389,21.7645161 9.0056926,23.3806452 C9.6857685,23.4919355 9.92485769,23.1096774 9.92485769,22.7951613 C9.92485769,22.4951613 9.90891841,20.8403226 9.90891841,19.8241935 C9.90891841,19.8241935 6.18975332,20.55 5.40872865,18.3822581 C5.40872865,18.3822581 4.80303605,16.9741935 3.9316888,16.6112903 C3.9316888,16.6112903 2.71499051,15.8516129 4.01669829,15.866129 C4.01669829,15.866129 5.33965844,15.9629032 6.06755218,17.1145161 C7.23111954,18.9822581 9.18102467,18.4451613 9.94079696,18.1258065 C10.0629981,17.3516129 10.4083491,16.8145161 10.7908918,16.4951613 C7.82087287,16.1951613 4.82428843,15.8032258 4.82428843,11.1483871 C4.82428843,9.81774194 5.22808349,9.15 6.07817837,8.2983871 C5.94003795,7.98387097 5.48842505,6.68709677 6.21631879,5.01290323 C7.32675522,4.6983871 9.88235294,6.31935484 9.88235294,6.31935484 C10.9449715,6.0483871 12.0872865,5.90806452 13.2189753,5.90806452 C14.3506641,5.90806452 15.4929791,6.0483871 16.5555977,6.31935484 C16.5555977,6.31935484 19.1111954,4.69354839 20.2216319,5.01290323 C20.9495256,6.69193548 20.4979127,7.98387097 20.3597723,8.2983871 C21.2098672,9.15483871 21.7305503,9.82258065 21.7305503,11.1483871 C21.7305503,15.8177419 18.6011385,16.1903226 15.6311195,16.4951613 C16.1199241,16.8774194 16.5343454,17.6032258 16.5343454,18.7403226 C16.5343454,20.3709677 16.5184061,22.3887097 16.5184061,22.7854839 C16.5184061,23.1 16.7628083,23.4822581 17.4375712,23.3709677 C22.7506641,21.7645161 26.3529412,17.1725806 26.3529412,11.8064516 C26.3529412,5.09516129 20.3757116,0 13.0064516,0 Z M5.16432638,16.6887097 C5.09525617,16.7370968 5.11119545,16.8483871 5.20151803,16.9403226 C5.28652751,17.0177419 5.40872865,17.0516129 5.47779886,16.9887097 C5.54686907,16.9403226 5.53092979,16.8290323 5.44060721,16.7370968 C5.35559772,16.6596774 5.23339658,16.6258065 5.16432638,16.6887097 Z M4.59051233,16.2967742 C4.55332068,16.3596774 4.60645161,16.4370968 4.71271347,16.4854839 C4.79772296,16.533871 4.90398482,16.5193548 4.94117647,16.4516129 C4.97836812,16.3887097 4.92523719,16.3112903 4.81897533,16.2629032 C4.71271347,16.233871 4.62770398,16.2483871 4.59051233,16.2967742 Z M6.31195446,18.0193548 C6.22694497,18.0822581 6.25882353,18.2274194 6.38102467,18.3193548 C6.50322581,18.4306452 6.6573055,18.4451613 6.72637571,18.3677419 C6.79544592,18.3048387 6.76356736,18.1596774 6.6573055,18.0677419 C6.54041746,17.9564516 6.38102467,17.9419355 6.31195446,18.0193548 Z M5.70626186,17.3080645 C5.62125237,17.3564516 5.62125237,17.4822581 5.70626186,17.5935484 C5.79127135,17.7048387 5.93472486,17.7532258 6.00379507,17.7048387 C6.08880455,17.6419355 6.08880455,17.516129 6.00379507,17.4048387 C5.92941176,17.2935484 5.79127135,17.2451613 5.70626186,17.3080645 Z" id="Shape" fill-rule="nonzero"></path>
                        </g>
                    </g>
                </g>
            </g>
        </g>
    </g>
</svg>