<?xml version="1.0" encoding="UTF-8"?>
<svg width="28px" height="24px" viewBox="0 0 28 24" version="1.1" xmlns="http://www.w3.org/2000/svg" xmlns:xlink="http://www.w3.org/1999/xlink">
    <!-- Generator: Sketch 64 (93537) - https://sketch.com -->
    <title>icon/linkedin</title>
    <desc>Created with Sketch.</desc>
    <g id="Article-Overview" stroke="none" stroke-width="1" fill="none" fill-rule="evenodd">
        <g id="Desktop---Article-List-View" transform="translate(-1110.000000, -756.000000)" fill="#343838">
            <g id="About-Me-Box" transform="translate(410.000000, 747.000000)">
                <g id="External-Sites" transform="translate(658.000000, 9.000000)">
                    <g id="icon/linkedin" transform="translate(42.820000, 0.000000)">
                        <g id="linkedin">
                            <path d="M24.4705882,0 L1.87647059,0 C0.841176471,0 0,0.776785714 0,1.73035714 L0,22.2696429 C0,23.2232143 0.841176471,24 1.87647059,24 L24.4705882,24 C25.5058824,24 26.3529412,23.2232143 26.3529412,22.2696429 L26.3529412,1.73035714 C26.3529412,0.776785714 25.5058824,0 24.4705882,0 Z M7.96470588,20.5714286 L4.05882353,20.5714286 L4.05882353,9.11785714 L7.97058824,9.11785714 L7.97058824,20.5714286 L7.96470588,20.5714286 Z M6.01176471,7.55357143 C4.75882353,7.55357143 3.74705882,6.62678571 3.74705882,5.49107143 C3.74705882,4.35535714 4.75882353,3.42857143 6.01176471,3.42857143 C7.25882353,3.42857143 8.27647059,4.35535714 8.27647059,5.49107143 C8.27647059,6.63214286 7.26470588,7.55357143 6.01176471,7.55357143 L6.01176471,7.55357143 Z M22.6058824,20.5714286 L18.7,20.5714286 L18.7,15 C18.7,13.6714286 18.6705882,11.9625 16.6705882,11.9625 C14.6352941,11.9625 14.3235294,13.4089286 14.3235294,14.9035714 L14.3235294,20.5714286 L10.4176471,20.5714286 L10.4176471,9.11785714 L14.1647059,9.11785714 L14.1647059,10.6821429 L14.2176471,10.6821429 C14.7411765,9.78214286 16.0176471,8.83392857 17.9176471,8.83392857 C21.8705882,8.83392857 22.6058824,11.2071429 22.6058824,14.2928571 L22.6058824,20.5714286 L22.6058824,20.5714286 Z" id="Shape" fill-rule="nonzero"></path>
                        </g>
                    </g>
                </g>
            </g>
        </g>
    </g>
</svg>