<?xml version="1.0" encoding="UTF-8"?>
<svg width="27px" height="24px" viewBox="0 0 27 24" version="1.1" xmlns="http://www.w3.org/2000/svg" xmlns:xlink="http://www.w3.org/1999/xlink">
    <!-- Generator: Sketch 64 (93537) - https://sketch.com -->
    <title>icon/xing</title>
    <desc>Created with Sketch.</desc>
    <g id="Article-Overview" stroke="none" stroke-width="1" fill="none" fill-rule="evenodd">
        <g id="Desktop---Article-List-View" transform="translate(-1153.000000, -756.000000)" fill="#343838">
            <g id="About-Me-Box" transform="translate(410.000000, 747.000000)">
                <g id="External-Sites" transform="translate(658.000000, 9.000000)">
                    <g id="icon/xing" transform="translate(85.640000, 0.000000)">
                        <g id="xing-square">
                            <path d="M23.5294118,0 L2.82352941,0 C1.26470588,0 0,1.15178571 0,2.57142857 L0,21.4285714 C0,22.8482143 1.26470588,24 2.82352941,24 L23.5294118,24 C25.0882353,24 26.3529412,22.8482143 26.3529412,21.4285714 L26.3529412,2.57142857 C26.3529412,1.15178571 25.0882353,0 23.5294118,0 Z M8.25882353,15.4392857 L5.51764706,15.4392857 C5.19411765,15.4392857 5.00588235,15.1553571 5.16470588,14.8875 L8.06470588,10.2428571 C8.07058824,10.2428571 8.07058824,10.2375 8.06470588,10.2321429 L6.21764706,7.33928571 C6.04117647,7.03928571 6.22941176,6.79821429 6.57058824,6.79821429 L9.31176471,6.79821429 C9.61764706,6.79821429 9.87058824,6.95357143 10.0705882,7.26428571 L11.9470588,10.2267857 C11.8705882,10.35 10.8882353,11.925 9,14.9517857 C8.79411765,15.2839286 8.54705882,15.4392857 8.25882353,15.4392857 Z M21.1823529,3.96964286 L15.1352941,13.65 L15.1352941,13.6607143 L18.9882353,20.0357143 C19.1529412,20.3089286 18.9941176,20.5767857 18.6352941,20.5767857 L15.8941176,20.5767857 C15.5705882,20.5767857 15.3235294,20.4214286 15.1352941,20.1107143 L11.2529412,13.6660714 C11.3882353,13.4464286 13.4176471,10.1892857 17.3352941,3.9 C17.5294118,3.58928571 17.7705882,3.43384632 18.0705882,3.43384632 L20.8294118,3.43384632 C21.1647059,3.42857143 21.3470588,3.68571429 21.1823529,3.96964286 Z" id="Shape" fill-rule="nonzero"></path>
                        </g>
                    </g>
                </g>
            </g>
        </g>
    </g>
</svg>